<mxfile host="Electron" agent="Mozilla/5.0 (Macintosh; Intel Mac OS X 10_15_7) AppleWebKit/537.36 (KHTML, like Gecko) draw.io/24.7.5 Chrome/126.0.6478.183 Electron/31.3.0 Safari/537.36" version="24.7.5">
  <diagram name="Page-1" id="vtVrbCgokvaO6DJgOtc7">
    <mxGraphModel dx="2074" dy="1156" grid="1" gridSize="10" guides="1" tooltips="1" connect="1" arrows="1" fold="1" page="1" pageScale="1" pageWidth="850" pageHeight="1100" background="#000000" math="0" shadow="0">
      <root>
        <mxCell id="0" />
        <mxCell id="1" parent="0" />
        <mxCell id="gvpaLU-KvZevci-ZIURu-2" value="" style="rounded=1;whiteSpace=wrap;html=1;fillColor=#ffc9f6;strokeColor=none;" parent="1" vertex="1">
          <mxGeometry x="150" y="240" width="60" height="60" as="geometry" />
        </mxCell>
        <mxCell id="gvpaLU-KvZevci-ZIURu-4" value="" style="shape=image;verticalLabelPosition=bottom;labelBackgroundColor=default;verticalAlign=top;aspect=fixed;imageAspect=0;image=data:image/png,iVBORw0KGgoAAAANSUhEUgAAACwAAAAfCAMAAACrtN8wAAAAAXNSR0IArs4c6QAAAARnQU1BAACxjwv8YQUAAABjUExURQAAAP///////////////////////////////////////////////////////////////////////////////////////////////////////////////////////////////5pFDaAAAAAgdFJOUwAIEBggKDA4QEhQWGBocHiAh4+Xn6evt7/Hz9ff5+/3v+H4wgAAAAlwSFlzAAAXEQAAFxEByibzPwAAAYZJREFUOE+NlNmagjAMhQulwqhUdqqs7/+Uk61YhG/G/0KTkyO0Taw6Qee9K4wkf5LY50oM//kT+0Lf0jYz+auLFA6YQpy3CLJrM2E2nvlNMWBtbq4iAFnN/joTgbHknEInk1YjVUrJgRyFtYkl3RGVVKwkVdlC+bp29w9/dGt9zbJiaOdCl2tWd07kB7WYVhXg0B/fO0k9Mxx75CQJcZ9OZNSqlvALnkqa+w2L0g/q254l3LMwVgluMcl7ETw2k8DzegRTFe+OqVOqkBAJjnPjyqMAL8TWyCHN7e20scClhCFZUgw1/HKsqRPKSPuEPqfVA8aSF+eQhzOt4AEUeeCFuz0oWaZM9cEMDBU+1fTw4eayKN6bJpNHNAEEPwSvssIvdglU2ACBzLwTDMnkwdIbEMDh8K+otMW1YLTBJg8IYC7waGR02CWw5AEBzIujfybBLiGnNXpACPPB+iZ4NN8vBKSbeSzPL6aE747APNXSzlMM3RMQ4JqP18iBtJ7g03V0iYUo9QuFb1I8rFRldgAAAABJRU5ErkJggg==;" parent="1" vertex="1">
          <mxGeometry x="158" y="254.5" width="44" height="31" as="geometry" />
        </mxCell>
        <mxCell id="gvpaLU-KvZevci-ZIURu-5" value="" style="rounded=1;whiteSpace=wrap;html=1;fillColor=#dec1e2;strokeColor=none;" parent="1" vertex="1">
          <mxGeometry x="150" y="320" width="60" height="60" as="geometry" />
        </mxCell>
        <mxCell id="gvpaLU-KvZevci-ZIURu-6" value="" style="shape=image;verticalLabelPosition=bottom;labelBackgroundColor=default;verticalAlign=top;aspect=fixed;imageAspect=0;image=data:image/png,iVBORw0KGgoAAAANSUhEUgAAACQAAAAiCAMAAAAAh4u3AAAAAXNSR0IArs4c6QAAAARnQU1BAACxjwv8YQUAAABjUExURQAAAP///////////////////////////////////////////////////////////////////////////////////////////////////////////////////////////////5pFDaAAAAAgdFJOUwAIEBggKDA4QEhQWGBocHiAh4+Xn6evt7/Hz9ff5+/3v+H4wgAAAAlwSFlzAAAXEQAAFxEByibzPwAAAZtJREFUOE9tlOligyAQhAFjNMa0xjvGg/d/ys7gqqD9frTssgx7YFRAUlQ9qIuHOC6k7WIPuqe4fe697O4MF7lSdvq+KvteJBstu47oszqfRhxZ5eK+sdjgNtHT3sV0RE573n3mC3O5JJrw6HgTiymPm3D8nbbwaMDGsOaVB7INMpGlMiO23lxpqh7VQnaUJZKdkQcv/EFMvfpIEOQ2G/xH1ku0ukgYpJDWolUcCp2DmHCmiiCjS5BxGqhm9rt/ClKYxYfOvWRyDoLIqNCKXmwHguaty4TTUehSJ7YDJ49ZgDeDcOcgtiNml/chKVVbO6mWf3xujDrG1FGEd3qvBhjOdYvSGEyrUniK1bFh+ASntS8PLHPFzMfgmeI47hB5ZGMxNN734xwHuv7+ukWCTXYowmuevQn7aKaXcsVOyPs7w6a1bqVZc/dfFI9vl9xRpv34s3AY6iz7C2GddkalPim/IfsSCzypZcf8uDPDoKETlB27Y0iteKVpXjTrdz4lsi3owon5LOX20R+YMGypL5WsJKX8nvRVJi6g1B+4UDNZaWwUvwAAAABJRU5ErkJggg==;" parent="1" vertex="1">
          <mxGeometry x="162" y="333" width="36" height="34" as="geometry" />
        </mxCell>
        <mxCell id="gvpaLU-KvZevci-ZIURu-7" value="" style="rounded=1;whiteSpace=wrap;html=1;fillColor=#e1d0e3;strokeColor=none;" parent="1" vertex="1">
          <mxGeometry x="150" y="400" width="60" height="60" as="geometry" />
        </mxCell>
        <mxCell id="gvpaLU-KvZevci-ZIURu-8" value="" style="shape=image;verticalLabelPosition=bottom;labelBackgroundColor=default;verticalAlign=top;aspect=fixed;imageAspect=0;image=data:image/png,iVBORw0KGgoAAAANSUhEUgAAACgAAAAlCAMAAAAHvluBAAAAAXNSR0IArs4c6QAAAARnQU1BAACxjwv8YQUAAABjUExURQAAAP///////////////////////////////////////////////////////////////////////////////////////////////////////////////////////////////5pFDaAAAAAgdFJOUwAIEBggKDA4QEhQWGBocHiAh4+Xn6evt7/Hz9ff5+/3v+H4wgAAAAlwSFlzAAAXEQAAFxEByibzPwAAAX9JREFUOE99lOeigyAMhV21w1GvtUqdvP9T3nACBRT7/ZF4IoQMox+kRTMI0cTaDJMVr0kyH/3qSFp0s3YCtX7vE1cfrX+ZINzFUF+wAok50OWqFAhLbSJ+QdnROMrygF/kBWcYIeV1v5KxprBCJ0vJGlGS6xurTks+JTRFQVamFhUrO3gTRUxb4rNMSz4rnEAvZY9FOMgbNEUp5YYUtVryQYJAShY+u7GyQ8AJjFK26hlvWvNwgmyknLGgaANAAleyzhO0wIdZdD8FE1TAhaGacMiHNpPjHYKGirMlakGZcth6twsVCV2XW4gSwGzDE624Q0jZYZEO5DT3dQ7ryNO/3DkX2ie8SfJovDipu21NDWnRqpjds3JqHB44Q1Z2ppmsY65uQHcwqb1UbyqBZnp9j87V3ICKysljxIztA+llUitIYftH/N13f55aK5ZNNLatLRygYQ1XREFVsZxVROGOM/8XTnAn5Zh0FzsA8+8/bGI8R8zDLyp1oakK7xdF/7YzUxUYuj2+AAAAAElFTkSuQmCC;" parent="1" vertex="1">
          <mxGeometry x="160" y="411.5" width="40" height="37" as="geometry" />
        </mxCell>
        <mxCell id="gvpaLU-KvZevci-ZIURu-9" value="" style="rounded=1;whiteSpace=wrap;html=1;fillColor=#e4dfe6;strokeColor=none;" parent="1" vertex="1">
          <mxGeometry x="150" y="480" width="60" height="60" as="geometry" />
        </mxCell>
        <mxCell id="gvpaLU-KvZevci-ZIURu-10" value="" style="shape=image;verticalLabelPosition=bottom;labelBackgroundColor=default;verticalAlign=top;aspect=fixed;imageAspect=0;image=data:image/png,iVBORw0KGgoAAAANSUhEUgAAACAAAAAhCAMAAACP+FljAAAAAXNSR0IArs4c6QAAAARnQU1BAACxjwv8YQUAAABgUExURQAAAP///////////////////////////////////////////////////////////////////////////////////////////////////////////////////////////3wlHLoAAAAfdFJOUwAIEBggKDA4QEhQWGBocICHj5efp6+3v8fP19/n7/eclSivAAAACXBIWXMAABcRAAAXEQHKJvM/AAAA70lEQVQ4T72TXReCIAyG30rTPjXNLA33//9lA9aiROuq52ZsPoczBkKom5WsPJ95RrSTpeMtX+d5fiQqOSiSZ/w57WiGPkcrywlaDHR7balIfiGClSabrFVAWS1sUHweCHF+FEw7yd0J8/xXMKdysLGrCp7gExVMsQTOvKjs+fbGVwNhK+eubQT4MjwqHMBPyAlJb1IspRz2wBNlgTrefQOtjwWmcdfpiQk9t6vniAhDChSuYokIe2DrCo6xcOKHrFOICFd+Sbui7KU4FuyvwKykGArDOuF/5OgF7SIQ4nwX3A3P8BpZnAbJeW6PS/YANLJbh4oVcgoAAAAASUVORK5CYII=;" parent="1" vertex="1">
          <mxGeometry x="164" y="493.5" width="32" height="33" as="geometry" />
        </mxCell>
        <mxCell id="gvpaLU-KvZevci-ZIURu-11" value="" style="rounded=1;whiteSpace=wrap;html=1;fillColor=#ecebed;strokeColor=none;" parent="1" vertex="1">
          <mxGeometry x="150" y="560" width="60" height="60" as="geometry" />
        </mxCell>
        <mxCell id="gvpaLU-KvZevci-ZIURu-13" value="" style="shape=image;verticalLabelPosition=bottom;labelBackgroundColor=default;verticalAlign=top;aspect=fixed;imageAspect=0;image=data:image/png,iVBORw0KGgoAAAANSUhEUgAAAC0AAAApCAMAAACWVVC+AAAAAXNSR0IArs4c6QAAAARnQU1BAACxjwv8YQUAAABjUExURQAAAP///////////////////////////////////////////////////////////////////////////////////////////////////////////////////////////////5pFDaAAAAAgdFJOUwAIEBggKDA4QEhQWGBocHiAh4+Xn6evt7/Hz9ff5+/3v+H4wgAAAAlwSFlzAAAXEQAAFxEByibzPwAAAXRJREFUSEuNlO2WgjAMRKO4gIKIwvKhAn3/p9yUDpCWsnB/pckcaJNpyUOUVV2Tx1j9y7lSE/UFuU3Ob0g13x25JVaqD5H34oh35C+IFt6oeAghkWSorWmgkHQBii43CGxeqDqcOtQd/AfNUWWG+xcR06BuEQyoMjnFiDQ3KCTLxFV3Wi0d3I/Zv3IRUzQblcdwu5ihoDFNkC2qxsxMIEoFb6tJiBKsNbbZhUF6/m057qZFhrHsIg2ijWHUbnZCGOSt22XUVCDHCLtIg1x1AuqgR5KZ7bI+PdSeTtmdNTdxUp9WU7Cm9jSpSU1X5DXGLh5HzOpVURqEZzJSqBrRxbGL2FprFEQ/RYSInqgxbBc5At8tkQ3L5ATYICC4L6+UsMtHjFEbBLSqQ8Qsdhnog8iyQq5KREyEOkMbF90P/SI4QkcpoiOUdBbt34P96Xv8/Aw8+vjwxx+6Q9eDcrwqobgi26RGzPL9pvezmElqZP20qfY20R9IZ4bfhYfDpwAAAABJRU5ErkJggg==;" parent="1" vertex="1">
          <mxGeometry x="158" y="569.5" width="45" height="41" as="geometry" />
        </mxCell>
        <mxCell id="gvpaLU-KvZevci-ZIURu-14" value="" style="rounded=1;whiteSpace=wrap;html=1;fillColor=#ffc9f6;strokeColor=none;" parent="1" vertex="1">
          <mxGeometry x="520" y="240" width="60" height="60" as="geometry" />
        </mxCell>
        <mxCell id="gvpaLU-KvZevci-ZIURu-15" value="" style="shape=image;verticalLabelPosition=bottom;labelBackgroundColor=default;verticalAlign=top;aspect=fixed;imageAspect=0;image=data:image/png,iVBORw0KGgoAAAANSUhEUgAAACwAAAAfCAMAAACrtN8wAAAAAXNSR0IArs4c6QAAAARnQU1BAACxjwv8YQUAAABjUExURQAAAP///////////////////////////////////////////////////////////////////////////////////////////////////////////////////////////////5pFDaAAAAAgdFJOUwAIEBggKDA4QEhQWGBocHiAh4+Xn6evt7/Hz9ff5+/3v+H4wgAAAAlwSFlzAAAXEQAAFxEByibzPwAAAYZJREFUOE+NlNmagjAMhQulwqhUdqqs7/+Uk61YhG/G/0KTkyO0Taw6Qee9K4wkf5LY50oM//kT+0Lf0jYz+auLFA6YQpy3CLJrM2E2nvlNMWBtbq4iAFnN/joTgbHknEInk1YjVUrJgRyFtYkl3RGVVKwkVdlC+bp29w9/dGt9zbJiaOdCl2tWd07kB7WYVhXg0B/fO0k9Mxx75CQJcZ9OZNSqlvALnkqa+w2L0g/q254l3LMwVgluMcl7ETw2k8DzegRTFe+OqVOqkBAJjnPjyqMAL8TWyCHN7e20scClhCFZUgw1/HKsqRPKSPuEPqfVA8aSF+eQhzOt4AEUeeCFuz0oWaZM9cEMDBU+1fTw4eayKN6bJpNHNAEEPwSvssIvdglU2ACBzLwTDMnkwdIbEMDh8K+otMW1YLTBJg8IYC7waGR02CWw5AEBzIujfybBLiGnNXpACPPB+iZ4NN8vBKSbeSzPL6aE747APNXSzlMM3RMQ4JqP18iBtJ7g03V0iYUo9QuFb1I8rFRldgAAAABJRU5ErkJggg==;" parent="1" vertex="1">
          <mxGeometry x="528" y="254.5" width="44" height="31" as="geometry" />
        </mxCell>
        <mxCell id="gvpaLU-KvZevci-ZIURu-16" value="" style="rounded=1;whiteSpace=wrap;html=1;fillColor=#dec1e2;strokeColor=none;" parent="1" vertex="1">
          <mxGeometry x="520" y="320" width="60" height="60" as="geometry" />
        </mxCell>
        <mxCell id="gvpaLU-KvZevci-ZIURu-17" value="" style="shape=image;verticalLabelPosition=bottom;labelBackgroundColor=default;verticalAlign=top;aspect=fixed;imageAspect=0;image=data:image/png,iVBORw0KGgoAAAANSUhEUgAAACQAAAAiCAMAAAAAh4u3AAAAAXNSR0IArs4c6QAAAARnQU1BAACxjwv8YQUAAABjUExURQAAAP///////////////////////////////////////////////////////////////////////////////////////////////////////////////////////////////5pFDaAAAAAgdFJOUwAIEBggKDA4QEhQWGBocHiAh4+Xn6evt7/Hz9ff5+/3v+H4wgAAAAlwSFlzAAAXEQAAFxEByibzPwAAAZtJREFUOE9tlOligyAQhAFjNMa0xjvGg/d/ys7gqqD9frTssgx7YFRAUlQ9qIuHOC6k7WIPuqe4fe697O4MF7lSdvq+KvteJBstu47oszqfRhxZ5eK+sdjgNtHT3sV0RE573n3mC3O5JJrw6HgTiymPm3D8nbbwaMDGsOaVB7INMpGlMiO23lxpqh7VQnaUJZKdkQcv/EFMvfpIEOQ2G/xH1ku0ukgYpJDWolUcCp2DmHCmiiCjS5BxGqhm9rt/ClKYxYfOvWRyDoLIqNCKXmwHguaty4TTUehSJ7YDJ49ZgDeDcOcgtiNml/chKVVbO6mWf3xujDrG1FGEd3qvBhjOdYvSGEyrUniK1bFh+ASntS8PLHPFzMfgmeI47hB5ZGMxNN734xwHuv7+ukWCTXYowmuevQn7aKaXcsVOyPs7w6a1bqVZc/dfFI9vl9xRpv34s3AY6iz7C2GddkalPim/IfsSCzypZcf8uDPDoKETlB27Y0iteKVpXjTrdz4lsi3owon5LOX20R+YMGypL5WsJKX8nvRVJi6g1B+4UDNZaWwUvwAAAABJRU5ErkJggg==;" parent="1" vertex="1">
          <mxGeometry x="532" y="333" width="36" height="34" as="geometry" />
        </mxCell>
        <mxCell id="gvpaLU-KvZevci-ZIURu-18" value="" style="rounded=1;whiteSpace=wrap;html=1;fillColor=#e1d0e3;strokeColor=none;" parent="1" vertex="1">
          <mxGeometry x="520" y="400" width="60" height="60" as="geometry" />
        </mxCell>
        <mxCell id="gvpaLU-KvZevci-ZIURu-19" value="" style="shape=image;verticalLabelPosition=bottom;labelBackgroundColor=default;verticalAlign=top;aspect=fixed;imageAspect=0;image=data:image/png,iVBORw0KGgoAAAANSUhEUgAAACgAAAAlCAMAAAAHvluBAAAAAXNSR0IArs4c6QAAAARnQU1BAACxjwv8YQUAAABjUExURQAAAP///////////////////////////////////////////////////////////////////////////////////////////////////////////////////////////////5pFDaAAAAAgdFJOUwAIEBggKDA4QEhQWGBocHiAh4+Xn6evt7/Hz9ff5+/3v+H4wgAAAAlwSFlzAAAXEQAAFxEByibzPwAAAX9JREFUOE99lOeigyAMhV21w1GvtUqdvP9T3nACBRT7/ZF4IoQMox+kRTMI0cTaDJMVr0kyH/3qSFp0s3YCtX7vE1cfrX+ZINzFUF+wAok50OWqFAhLbSJ+QdnROMrygF/kBWcYIeV1v5KxprBCJ0vJGlGS6xurTks+JTRFQVamFhUrO3gTRUxb4rNMSz4rnEAvZY9FOMgbNEUp5YYUtVryQYJAShY+u7GyQ8AJjFK26hlvWvNwgmyknLGgaANAAleyzhO0wIdZdD8FE1TAhaGacMiHNpPjHYKGirMlakGZcth6twsVCV2XW4gSwGzDE624Q0jZYZEO5DT3dQ7ryNO/3DkX2ie8SfJovDipu21NDWnRqpjds3JqHB44Q1Z2ppmsY65uQHcwqb1UbyqBZnp9j87V3ICKysljxIztA+llUitIYftH/N13f55aK5ZNNLatLRygYQ1XREFVsZxVROGOM/8XTnAn5Zh0FzsA8+8/bGI8R8zDLyp1oakK7xdF/7YzUxUYuj2+AAAAAElFTkSuQmCC;" parent="1" vertex="1">
          <mxGeometry x="530" y="411.5" width="40" height="37" as="geometry" />
        </mxCell>
        <mxCell id="gvpaLU-KvZevci-ZIURu-20" value="" style="rounded=1;whiteSpace=wrap;html=1;fillColor=#e4dfe6;strokeColor=none;" parent="1" vertex="1">
          <mxGeometry x="520" y="480" width="60" height="60" as="geometry" />
        </mxCell>
        <mxCell id="gvpaLU-KvZevci-ZIURu-21" value="" style="shape=image;verticalLabelPosition=bottom;labelBackgroundColor=default;verticalAlign=top;aspect=fixed;imageAspect=0;image=data:image/png,iVBORw0KGgoAAAANSUhEUgAAACAAAAAhCAMAAACP+FljAAAAAXNSR0IArs4c6QAAAARnQU1BAACxjwv8YQUAAABgUExURQAAAP///////////////////////////////////////////////////////////////////////////////////////////////////////////////////////////3wlHLoAAAAfdFJOUwAIEBggKDA4QEhQWGBocICHj5efp6+3v8fP19/n7/eclSivAAAACXBIWXMAABcRAAAXEQHKJvM/AAAA70lEQVQ4T72TXReCIAyG30rTPjXNLA33//9lA9aiROuq52ZsPoczBkKom5WsPJ95RrSTpeMtX+d5fiQqOSiSZ/w57WiGPkcrywlaDHR7balIfiGClSabrFVAWS1sUHweCHF+FEw7yd0J8/xXMKdysLGrCp7gExVMsQTOvKjs+fbGVwNhK+eubQT4MjwqHMBPyAlJb1IspRz2wBNlgTrefQOtjwWmcdfpiQk9t6vniAhDChSuYokIe2DrCo6xcOKHrFOICFd+Sbui7KU4FuyvwKykGArDOuF/5OgF7SIQ4nwX3A3P8BpZnAbJeW6PS/YANLJbh4oVcgoAAAAASUVORK5CYII=;" parent="1" vertex="1">
          <mxGeometry x="534" y="493.5" width="32" height="33" as="geometry" />
        </mxCell>
        <mxCell id="gvpaLU-KvZevci-ZIURu-22" value="" style="rounded=1;whiteSpace=wrap;html=1;fillColor=#ecebed;strokeColor=none;" parent="1" vertex="1">
          <mxGeometry x="520" y="560" width="60" height="60" as="geometry" />
        </mxCell>
        <mxCell id="gvpaLU-KvZevci-ZIURu-23" value="" style="shape=image;verticalLabelPosition=bottom;labelBackgroundColor=default;verticalAlign=top;aspect=fixed;imageAspect=0;image=data:image/png,iVBORw0KGgoAAAANSUhEUgAAAC0AAAApCAMAAACWVVC+AAAAAXNSR0IArs4c6QAAAARnQU1BAACxjwv8YQUAAABjUExURQAAAP///////////////////////////////////////////////////////////////////////////////////////////////////////////////////////////////5pFDaAAAAAgdFJOUwAIEBggKDA4QEhQWGBocHiAh4+Xn6evt7/Hz9ff5+/3v+H4wgAAAAlwSFlzAAAXEQAAFxEByibzPwAAAXRJREFUSEuNlO2WgjAMRKO4gIKIwvKhAn3/p9yUDpCWsnB/pckcaJNpyUOUVV2Tx1j9y7lSE/UFuU3Ob0g13x25JVaqD5H34oh35C+IFt6oeAghkWSorWmgkHQBii43CGxeqDqcOtQd/AfNUWWG+xcR06BuEQyoMjnFiDQ3KCTLxFV3Wi0d3I/Zv3IRUzQblcdwu5ihoDFNkC2qxsxMIEoFb6tJiBKsNbbZhUF6/m057qZFhrHsIg2ijWHUbnZCGOSt22XUVCDHCLtIg1x1AuqgR5KZ7bI+PdSeTtmdNTdxUp9WU7Cm9jSpSU1X5DXGLh5HzOpVURqEZzJSqBrRxbGL2FprFEQ/RYSInqgxbBc5At8tkQ3L5ATYICC4L6+UsMtHjFEbBLSqQ8Qsdhnog8iyQq5KREyEOkMbF90P/SI4QkcpoiOUdBbt34P96Xv8/Aw8+vjwxx+6Q9eDcrwqobgi26RGzPL9pvezmElqZP20qfY20R9IZ4bfhYfDpwAAAABJRU5ErkJggg==;" parent="1" vertex="1">
          <mxGeometry x="528" y="569.5" width="45" height="41" as="geometry" />
        </mxCell>
        <mxCell id="gvpaLU-KvZevci-ZIURu-25" value="Short Term Material Demand" style="text;html=1;strokeColor=none;fillColor=none;align=left;verticalAlign=middle;whiteSpace=wrap;rounded=0;fontColor=#ffffff;" parent="1" vertex="1">
          <mxGeometry x="590" y="335" width="100" height="30" as="geometry" />
        </mxCell>
        <mxCell id="gvpaLU-KvZevci-ZIURu-26" value="Item Stock" style="text;html=1;strokeColor=none;fillColor=none;align=left;verticalAlign=middle;whiteSpace=wrap;rounded=0;fontColor=#ffffff;" parent="1" vertex="1">
          <mxGeometry x="590" y="254.5" width="100" height="30" as="geometry" />
        </mxCell>
        <mxCell id="gvpaLU-KvZevci-ZIURu-27" value="Delivery Information" style="text;html=1;strokeColor=none;fillColor=none;align=left;verticalAlign=middle;whiteSpace=wrap;rounded=0;fontColor=#ffffff;" parent="1" vertex="1">
          <mxGeometry x="590" y="415" width="100" height="30" as="geometry" />
        </mxCell>
        <mxCell id="gvpaLU-KvZevci-ZIURu-28" value="Days of Supply" style="text;html=1;strokeColor=none;fillColor=none;align=left;verticalAlign=middle;whiteSpace=wrap;rounded=0;fontColor=#ffffff;" parent="1" vertex="1">
          <mxGeometry x="590" y="495" width="100" height="30" as="geometry" />
        </mxCell>
        <mxCell id="gvpaLU-KvZevci-ZIURu-29" value="SC Disruption Notification" style="text;html=1;strokeColor=none;fillColor=none;align=left;verticalAlign=middle;whiteSpace=wrap;rounded=0;fontColor=#ffffff;" parent="1" vertex="1">
          <mxGeometry x="590" y="575" width="100" height="30" as="geometry" />
        </mxCell>
        <mxCell id="gvpaLU-KvZevci-ZIURu-30" value="Planned Production Output" style="text;html=1;strokeColor=none;fillColor=none;align=right;verticalAlign=middle;whiteSpace=wrap;rounded=0;fontColor=#FFFFFF;" parent="1" vertex="1">
          <mxGeometry x="40" y="335" width="100" height="30" as="geometry" />
        </mxCell>
        <mxCell id="gvpaLU-KvZevci-ZIURu-31" value="Item Stock" style="text;html=1;strokeColor=none;fillColor=none;align=right;verticalAlign=middle;whiteSpace=wrap;rounded=0;fontColor=#FFFFFF;" parent="1" vertex="1">
          <mxGeometry x="40" y="254.5" width="100" height="30" as="geometry" />
        </mxCell>
        <mxCell id="gvpaLU-KvZevci-ZIURu-32" value="Delivery Information" style="text;html=1;strokeColor=none;fillColor=none;align=right;verticalAlign=middle;whiteSpace=wrap;rounded=0;fontColor=#FFFFFF;" parent="1" vertex="1">
          <mxGeometry x="40" y="415" width="100" height="30" as="geometry" />
        </mxCell>
        <mxCell id="gvpaLU-KvZevci-ZIURu-33" value="Days of Supply" style="text;html=1;strokeColor=none;fillColor=none;align=right;verticalAlign=middle;whiteSpace=wrap;rounded=0;fontColor=#FFFFFF;" parent="1" vertex="1">
          <mxGeometry x="40" y="495" width="100" height="30" as="geometry" />
        </mxCell>
        <mxCell id="gvpaLU-KvZevci-ZIURu-34" value="SC Disruption Notification" style="text;html=1;strokeColor=none;fillColor=none;align=right;verticalAlign=middle;whiteSpace=wrap;rounded=0;fontColor=#FFFFFF;" parent="1" vertex="1">
          <mxGeometry x="40" y="575" width="100" height="30" as="geometry" />
        </mxCell>
        <mxCell id="gvpaLU-KvZevci-ZIURu-35" value="" style="endArrow=block;html=1;rounded=0;fontSize=11;strokeWidth=5;endFill=1;strokeColor=#b3cb2e;" parent="1" edge="1">
          <mxGeometry width="50" height="50" relative="1" as="geometry">
            <mxPoint x="280" y="400" as="sourcePoint" />
            <mxPoint x="440" y="400" as="targetPoint" />
          </mxGeometry>
        </mxCell>
        <mxCell id="gvpaLU-KvZevci-ZIURu-36" value="" style="endArrow=block;html=1;rounded=0;fontSize=11;strokeWidth=5;endFill=1;strokeColor=#b3cb2e;" parent="1" edge="1">
          <mxGeometry width="50" height="50" relative="1" as="geometry">
            <mxPoint x="440" y="460" as="sourcePoint" />
            <mxPoint x="280" y="460" as="targetPoint" />
          </mxGeometry>
        </mxCell>
        <mxCell id="gvpaLU-KvZevci-ZIURu-37" value="Data Exchange" style="text;html=1;strokeColor=none;fillColor=none;align=center;verticalAlign=middle;whiteSpace=wrap;rounded=0;fontColor=#ffffff;" parent="1" vertex="1">
          <mxGeometry x="280" y="367" width="160" height="30" as="geometry" />
        </mxCell>
        <mxCell id="gvpaLU-KvZevci-ZIURu-38" value="Data Exchange" style="text;html=1;strokeColor=none;fillColor=none;align=center;verticalAlign=middle;whiteSpace=wrap;rounded=0;fontColor=#ffffff;" parent="1" vertex="1">
          <mxGeometry x="280" y="465" width="160" height="30" as="geometry" />
        </mxCell>
        <mxCell id="gvpaLU-KvZevci-ZIURu-39" value="&lt;u style=&quot;font-size: 16px;&quot;&gt;&lt;font style=&quot;font-size: 16px;&quot;&gt;Supplier&lt;/font&gt;&lt;/u&gt;" style="text;html=1;strokeColor=none;fillColor=none;align=center;verticalAlign=middle;whiteSpace=wrap;rounded=0;fontSize=16;fontColor=none;noLabel=1;" parent="1" vertex="1">
          <mxGeometry x="130" y="200" width="100" height="30" as="geometry" />
        </mxCell>
        <mxCell id="gvpaLU-KvZevci-ZIURu-40" value="&lt;u&gt;&lt;font style=&quot;font-size: 16px;&quot;&gt;Customer&lt;/font&gt;&lt;/u&gt;" style="text;html=1;strokeColor=none;fillColor=none;align=center;verticalAlign=middle;whiteSpace=wrap;rounded=0;fontColor=#ffffff;" parent="1" vertex="1">
          <mxGeometry x="500" y="200" width="100" height="30" as="geometry" />
        </mxCell>
        <mxCell id="gvpaLU-KvZevci-ZIURu-41" value="" style="rounded=1;whiteSpace=wrap;html=1;fontColor=#cfa5db;strokeColor=none;fillColor=#cfa5db;" parent="1" vertex="1">
          <mxGeometry x="38" y="120" width="652" height="60" as="geometry" />
        </mxCell>
        <mxCell id="gvpaLU-KvZevci-ZIURu-49" style="edgeStyle=orthogonalEdgeStyle;rounded=0;orthogonalLoop=1;jettySize=auto;html=1;exitX=1;exitY=0.5;exitDx=0;exitDy=0;strokeWidth=3;startArrow=block;startFill=1;endArrow=block;endFill=1;" parent="1" source="gvpaLU-KvZevci-ZIURu-42" target="gvpaLU-KvZevci-ZIURu-43" edge="1">
          <mxGeometry relative="1" as="geometry" />
        </mxCell>
        <mxCell id="gvpaLU-KvZevci-ZIURu-42" value="Tier-n" style="rounded=1;whiteSpace=wrap;html=1;fontSize=16;strokeColor=none;" parent="1" vertex="1">
          <mxGeometry x="58" y="130" width="100" height="40" as="geometry" />
        </mxCell>
        <mxCell id="gvpaLU-KvZevci-ZIURu-43" value="Tier-2" style="rounded=1;whiteSpace=wrap;html=1;fontSize=16;strokeColor=none;" parent="1" vertex="1">
          <mxGeometry x="227" y="130" width="100" height="40" as="geometry" />
        </mxCell>
        <mxCell id="gvpaLU-KvZevci-ZIURu-45" value="OEM" style="rounded=1;whiteSpace=wrap;html=1;fontSize=16;strokeColor=none;" parent="1" vertex="1">
          <mxGeometry x="566" y="130" width="100" height="40" as="geometry" />
        </mxCell>
        <mxCell id="gvpaLU-KvZevci-ZIURu-48" value="Tier-1" style="rounded=1;whiteSpace=wrap;html=1;fontSize=16;strokeColor=none;" parent="1" vertex="1">
          <mxGeometry x="397" y="130" width="100" height="40" as="geometry" />
        </mxCell>
        <mxCell id="gvpaLU-KvZevci-ZIURu-50" style="edgeStyle=orthogonalEdgeStyle;rounded=0;orthogonalLoop=1;jettySize=auto;html=1;strokeWidth=3;startArrow=block;startFill=1;endArrow=block;endFill=1;entryX=0;entryY=0.5;entryDx=0;entryDy=0;exitX=1;exitY=0.5;exitDx=0;exitDy=0;" parent="1" source="gvpaLU-KvZevci-ZIURu-43" target="gvpaLU-KvZevci-ZIURu-48" edge="1">
          <mxGeometry relative="1" as="geometry">
            <mxPoint x="350" y="150" as="sourcePoint" />
            <mxPoint x="237" y="160" as="targetPoint" />
          </mxGeometry>
        </mxCell>
        <mxCell id="gvpaLU-KvZevci-ZIURu-51" style="edgeStyle=orthogonalEdgeStyle;rounded=0;orthogonalLoop=1;jettySize=auto;html=1;strokeWidth=3;startArrow=block;startFill=1;endArrow=block;endFill=1;entryX=0;entryY=0.5;entryDx=0;entryDy=0;" parent="1" source="gvpaLU-KvZevci-ZIURu-48" target="gvpaLU-KvZevci-ZIURu-45" edge="1">
          <mxGeometry relative="1" as="geometry">
            <mxPoint x="520" y="150" as="sourcePoint" />
            <mxPoint x="407" y="160" as="targetPoint" />
          </mxGeometry>
        </mxCell>
      </root>
    </mxGraphModel>
  </diagram>
</mxfile>
